# AST/ASF file generated using VICON BodyLanguage
# -----------------------------------------------
:version 1.10
:name VICON
:units
  mass 1.0
  length 0.45
  angle deg
:documentation
   .ast/.asf automatically generated from VICON data using
   VICON BodyBuilder and BodyLanguage model FoxedUp or BRILLIANT.MOD
:root
   order TX TY TZ RX RY RZ
   axis XYZ
   position 0 0 0  
   orientation 0 0 0 
:bonedata
  begin
     id 1 
     name lhipjoint
     direction 0.662698 -0.695252 0.27831 
     length 2.53073 
     axis 0 0 0  XYZ
  end
  begin
     id 2 
     name lfemur
     direction 0.34202 -0.939693 0  
     length 7.16147  
     axis 0 0 20  XYZ
    dof rx ry rz
    limits (-160.0 20.0)
           (-70.0 70.0)
           (-60.0 70.0)
  end
  begin
     id 3 
     name ltibia
     direction 0.34202 -0.939693 0   
     length 7.63967   
     axis 0 0 20   XYZ
    dof rx
    limits (-10.0 170.0)
  end
  begin
     id 4 
     name lfoot
     direction 0.0938457 -0.257721 0.961651   
     length 1.89793   
     axis -90 7.62852e-016 20   XYZ
    dof rx rz
    limits (-45.0 90.0)
           (-70.0 20.0)
  end
  begin
     id 5 
     name ltoes
     direction -0.00116841 -0.0030592 0.999995   
     length 0.955649   
     axis -90 7.62852e-016 20   XYZ
    dof rx
    limits (-90.0 20.0)
  end
  begin
     id 6 
     name rhipjoint
     direction -0.649445 -0.705948 0.282592   
     length 2.49238  
     axis 0 0 0  XYZ 
  end
  begin
     id 7 
     name rfemur
     direction -0.34202 -0.939693 0   
     length 6.90728   
     axis 0 0 -20   XYZ
    dof rx ry rz
    limits (-160.0 20.0)
           (-70.0 70.0)
           (-70.0 60.0)
  end
  begin
     id 8 
     name rtibia
     direction -0.34202 -0.939693 0   
     length 7.72868   
     axis 0 0 -20   XYZ
    dof rx
    limits (-10.0 170.0)
 end
 begin
     id 9 
     name rfoot
     direction -0.0920068 -0.252865 0.963117   
     length 1.97476  
     axis -90 -7.62852e-016 -20   XYZ
    dof rx rz
    limits (-45.0 90.0)
           (-20.0 70.0)
  end
  begin
     id 10 
     name rtoes
     direction 0.000391322 0.00230649 0.999997   
     length 0.992641   
     axis -90 -7.62852e-016 -20   XYZ
    dof rx
    limits (-90.0 20.0)
  end
  begin
     id 11 
     name lowerback
     direction -0.00875327 0.998321 -0.0572635   
     length 2.20024   
     axis 0 0 0   XYZ
    dof rx ry rz
    limits (-20.0 45.0)
           (-30.0 30.0)
           (-30.0 30.0)
  end
  begin
     id 12 
     name upperback
     direction 0.00753931 0.999972 -0.000360425   
     length 2.20538   
     axis 0 0 0   XYZ
    dof rx ry rz
    limits (-20.0 45.0)
           (-30.0 30.0)
           (-30.0 30.0)
  end
  begin
     id 13 
     name thorax
     direction 0.0117767 0.999601 0.0256663   
     length 2.21508   
     axis 0 0 0   XYZ
    dof rx ry rz
    limits (-20.0 45.0)
           (-30.0 30.0)
           (-30.0 30.0)
  end
  begin
     id 14 
     name lowerneck
     direction 0.060228 0.994909 0.0807986   
     length 1.7607   
     axis 0 0 0   XYZ
    dof rx ry rz
    limits (-20.0 45.0)
           (-30.0 30.0)
           (-30.0 30.0)
  end
  begin
     id 15 
     name upperneck
     direction -0.0563647 0.959594 -0.275685   
     length 1.75612   
     axis 0 0 0   XYZ
    dof rx ry rz
    limits (-20.0 45.0)
           (-30.0 30.0)
           (-30.0 30.0)
  end
  begin
     id 16
     name head
     direction -0.0161544 0.99458 -0.102714  
     length 1.79288  
     axis 0 0 0   XYZ
    dof rx ry rz
    limits (-20.0 45.0)
           (-30.0 30.0)
           (-30.0 30.0)
  end
  begin
     id 17 
     name lclavicle
     direction 0.93913 0.332189 -0.087669  
     length 3.52087  
     axis 0 0 0   XYZ
    dof ry rz
    limits (-20.0 10.0)
           (0.0 20.0)
  end
  begin
     id 18 
     name lhumerus
     direction 1 -4.48974e-011 -2.70836e-027   
     length 5.35289   
     axis -180 -30 -90   XYZ
    dof rx ry rz
    limits (-60.0 90.0)
           (-90.0 90.0)
           (-90.0 90.0)
  end
  begin
     id 19
     name lradius
     direction 1 -4.48961e-011 -9.76021e-027   
     length 3.27727   
     axis -180 -30 -90   XYZ
    dof rx
    limits (-10.0 170.0)
  end
  begin
     id 20
     name lwrist
     direction 1 -4.49103e-011 -2.23668e-026   
     length 1.63864   
     axis 1.44924e-014 90 90   XYZ
    dof ry
    limits (-180.0 0.0)
 end
  begin
     id 21 
     name lhand
     direction 1 3.0697e-005 0.000161777   
     length 0.54443   
     axis 2.85318e-014 90 90   XYZ
    dof rx rz
    limits (-90.0 90.0)
           (-45.0 45.0)
  end
  begin
     id 22 
     name lfingers
     direction 1 -4.49027e-011 -8.9447e-026   
     length 0.438912   
     axis 5.70628e-014 90 90   XYZ
    dof rx
    limits (0.0 90.0)
  end
  begin
     id 23
     name lthumb
     direction 0.707058 2.6516e-005 0.707156   
     length 0.630274   
     axis -90 45 -3.53137e-014   XYZ
    dof rx rz
    limits (-45.0 45.0)
           (-45.0 45.0)
  end
  begin
     id 24 
     name rclavicle
     direction -0.95274 0.284984 -0.105215   
     length 3.43401  
     axis 0 0 0   XYZ 
    dof ry rz
    limits (-10.0 20.0)
           (-20.0 0.0)
  end
  begin
     id 25 
     name rhumerus
     direction -0.999999 -0.000575019 -0.00106829  
     length 5.52077   
     axis -180 30 90   XYZ
    dof rx ry rz
    limits (-90.0 60.0)
           (-90.0 90.0)
           (-90.0 90.0)
  end
  begin
     id 26 
     name rradius
     direction -1 -4.4879e-011 -6.35415e-027   
     length 3.32364   
     axis -180 30 90   XYZ
    dof rx
    limits (-10.0 170.0)
  end
  begin
     id 27 
     name rwrist
     direction -1 -4.49048e-011 -9.98542e-027   
     length 1.66182   
     axis 6.32482e-015 -90 -90   XYZ
    dof ry
    limits (-180.0 0.0)
  end
  begin
     id 28
     name rhand
     direction -1 -4.48978e-011 -1.99771e-026   
     length 0.732235   
     axis 1.27479e-014 -90 -90   XYZ
    dof rx rz
    limits (-90.0 90.0)
           (-45.0 45.0)
  end
  begin
     id 29
     name rfingers
     direction -1 -4.49144e-011 -3.99245e-026   
     length 0.590347   
     axis 2.5496e-014 -90 -90   XYZ
    dof rx
    limits (0.0 90.0)
  end
  begin
     id 30
     name rthumb
     direction -0.707107 -6.35121e-011 0.707107   
     length 0.847624   
     axis -90 -45 -2.82974e-014   XYZ
    dof rx rz
    limits (-45.0 45.0)
           (-45.0 45.0)
  end
:hierarchy
  begin
    root lhipjoint rhipjoint lowerback
    lhipjoint lfemur
    lfemur ltibia
    ltibia lfoot
    lfoot ltoes
    rhipjoint rfemur
    rfemur rtibia
    rtibia rfoot
    rfoot rtoes
    lowerback upperback
    upperback thorax
    thorax lowerneck lclavicle rclavicle
    lowerneck upperneck
    upperneck head
    lclavicle lhumerus
    lhumerus lradius
    lradius lwrist
    lwrist lhand lthumb
    lhand lfingers
    rclavicle rhumerus
    rhumerus rradius
    rradius rwrist
    rwrist rhand rthumb
    rhand rfingers
  end

#!OML:ASF G:\Work\Work\Patient Classification 1\Elijah\terrain1\Elijah.ASF
:FULLY-SPECIFIED
:DEGREES
2509
root -4.38485 20.404 -19.0856 363.078 -17.865 -356.834
lowerback 2.95754 -8.63745 6.18357
upperback 4.0128 -11.4912 -7.32031
thorax -0.163804 -5.70759 -10.5707
lowerneck -5.08305 19.8492 7.70007
upperneck 21.9518 29.7087 -13.5462
head 11.2365 13.0608 -1.92937
rclavicle 7.03698e-014 -4.77083e-015
rhumerus -36.4775 15.2271 -98.0192
rradius 28.0525
rwrist 0.829185
rhand -15.4302 22.4133
rfingers 7.12502
rthumb 10.7498 -7.29168
lclavicle 7.03698e-014 -4.77083e-015
lhumerus -46.3635 -14.9626 76.921
lradius 92.8291
lwrist 7.67951
lhand 1.09278 32.3674
lfingers 7.12502
lthumb 26.6366 60.5135
rfemur -43.7865 2.18345 14.3364
rtibia 46.2678
rfoot -12.1649 -4.59915
rtoes -14.2339
lfemur -5.18362 -2.37278 -28.4417
ltibia 31.5641
lfoot -0.815173 -17.3538
ltoes 24.9032
2510
root -4.44578 20.3924 -18.9876 363.052 -17.1525 -356.559
lowerback 2.597 -8.83804 6.46137
upperback 3.95498 -11.7748 -7.2904
thorax -0.136858 -5.85027 -10.7124
lowerneck -4.83897 19.8817 7.51682
upperneck 21.8372 29.7409 -13.4915
head 11.1123 13.0966 -1.92051
rclavicle -1.76521e-013 1.43125e-014
rhumerus -36.3442 15.2768 -98.1774
rradius 27.7331
rwrist 1.09796
rhand -15.3333 21.2306
rfingers 7.12502
rthumb 10.8433 -8.46948
lclavicle -1.76521e-013 1.43125e-014
lhumerus -47.051 -14.1835 76.7626
lradius 92.442
lwrist 7.35999
lhand 1.33182 32.921
lfingers 7.12502
lthumb 26.8654 61.0322
rfemur -43.2 2.41754 13.8204
rtibia 45.2113
rfoot -11.8573 -4.32622
rtoes -14.8513
lfemur -4.72456 -2.61347 -28.5419
ltibia 31.3099
lfoot -0.337959 -17.48
ltoes 26.1727
2511
root -4.50979 20.3694 -18.8952 362.915 -16.9211 -356.27
lowerback 2.46282 -8.8862 6.62675
upperback 3.89233 -11.847 -7.28646
thorax -0.176523 -5.89047 -10.8069
lowerneck -4.56153 19.8793 7.3037
upperneck 21.5864 29.7002 -13.4437
head 10.9185 13.1104 -1.9328
rclavicle -3.81667e-014 1.90833e-014
rhumerus -36.1136 15.1648 -98.3397
rradius 27.2968
rwrist 1.31954
rhand -15.2264 20.6669
rfingers 7.12502
rthumb 10.9464 -9.02773
lclavicle -3.81667e-014 1.90833e-014
lhumerus -47.5926 -13.5306 76.4997
lradius 91.5864
lwrist 5.30632
lhand 0.455348 32.1365
lfingers 7.12502
lthumb 26.0264 60.3739
rfemur -42.6524 2.78893 13.4478
rtibia 44.3485
rfoot -11.3217 -3.85962
rtoes -16.1401
lfemur -4.18842 -2.44906 -28.6751
ltibia 31.0701
lfoot -0.0305865 -17.7371
ltoes 26.8542
2512
root -4.57115 20.3504 -18.7978 362.971 -16.3443 -355.946
lowerback 2.01597 -9.02566 6.84617
upperback 3.84444 -12.056 -7.27357
thorax -0.0692002 -5.99211 -10.962
lowerneck -4.37275 19.9146 7.01538
upperneck 21.3157 29.6937 -13.3116
head 10.711 13.1396 -1.89756
rclavicle 5.1684e-015 2.70347e-014
rhumerus -36.0769 15.4124 -98.6336
rradius 27.1697
rwrist 1.19704
rhand -15.1737 20.5561
rfingers 7.12502
rthumb 10.9972 -9.13586
lclavicle 5.1684e-015 2.70347e-014
lhumerus -47.9272 -12.9732 76.1896
lradius 90.594
lwrist 3.34096
lhand -0.541911 31.3641
lfingers 7.12502
lthumb 25.0712 59.7384
rfemur -42.2265 2.88402 13.0105
rtibia 43.7297
rfoot -11.1731 -3.50255
rtoes -16.4717
lfemur -3.85615 -2.55079 -28.7962
ltibia 30.8745
lfoot 0.463704 -18.1152
ltoes 27.8636
2513
root -4.62882 20.3292 -18.6904 362.818 -15.7738 -355.409
lowerback 1.60973 -9.17696 6.86116
upperback 3.86431 -12.2799 -7.30566
thorax 0.11306 -6.09727 -11.0544
lowerneck -4.23724 19.9607 6.84004
upperneck 21.0543 29.7531 -13.3985
head 10.5848 13.1796 -1.9193
rclavicle 2.25422e-013 2.22639e-014
rhumerus -36.117 15.8223 -98.8374
rradius 27.1252
rwrist 1.16576
rhand -15.1152 20.5621
rfingers 7.12502
rthumb 11.0536 -9.12688
lclavicle 2.25422e-013 2.22639e-014
lhumerus -48.3097 -12.1959 75.8603
lradius 89.9237
lwrist 2.1443
lhand -0.933844 31.3387
lfingers 7.12502
lthumb 24.6956 59.7649
rfemur -41.6384 2.95876 12.3677
rtibia 43.2962
rfoot -10.5106 -2.63469
rtoes -16.3735
lfemur -3.30029 -2.54756 -29.1672
ltibia 30.7222
lfoot 0.71515 -18.51
ltoes 28.1641
2514
root -4.69291 20.3043 -18.5776 362.721 -15.2102 -354.932
lowerback 1.22604 -9.36227 6.77218
upperback 3.76615 -12.5458 -7.1841
thorax 0.203832 -6.23113 -10.9046
lowerneck -4.05218 20.0339 6.61628
upperneck 20.8261 29.8878 -13.5835
head 10.4826 13.2417 -1.95691
rclavicle 2.90226e-014 -2.70347e-014
rhumerus -36.118 16.0738 -98.7258
rradius 26.7157
rwrist 1.46516
rhand -14.8479 21.456
rfingers 7.12502
rthumb 11.3114 -8.21894
lclavicle 2.90226e-014 -2.70347e-014
lhumerus -48.9753 -10.9621 75.6081
lradius 89.2206
lwrist 1.05469
lhand -1.08866 30.3538
lfingers 7.12502
lthumb 24.5472 58.8002
rfemur -41.0509 3.06774 11.8489
rtibia 42.9975
rfoot -10.1746 -2.41438
rtoes -17.3802
lfemur -2.72905 -2.52576 -29.4563
ltibia 30.5486
lfoot 0.666027 -19.02
ltoes 27.3389
2515
root -4.74494 20.2779 -18.4716 362.719 -14.5329 -354.634
lowerback 1.00958 -9.61567 6.95358
upperback 3.58977 -12.8985 -6.9875
thorax 0.0618617 -6.41979 -10.7718
lowerneck -3.9018 20.2122 6.22338
upperneck 20.5257 30.1255 -13.59
head 10.3122 13.3634 -1.90757
rclavicle -2.56432e-014 -4.29375e-014
rhumerus -36.1186 16.4656 -98.6667
rradius 26.3076
rwrist 1.55696
rhand -14.4123 22.9238
rfingers 7.12502
rthumb 11.7315 -6.72772
lclavicle -2.56432e-014 -4.29375e-014
lhumerus -49.6185 -9.62915 75.2698
lradius 88.6381
lwrist 0.660146
lhand -0.664582 29.892
lfingers 7.12502
lthumb 24.9537 58.2826
rfemur -40.5102 2.9582 11.5487
rtibia 42.8122
rfoot -9.95968 -2.29557
rtoes -18.4829
lfemur -2.2907 -2.99509 -29.6617
ltibia 30.3724
lfoot 0.913082 -19.1128
ltoes 27.3284
2516
root -4.8028 20.2519 -18.36 362.698 -14.0658 -354.24
lowerback 0.625273 -9.76256 7.06046
upperback 3.53648 -13.1162 -6.88138
thorax 0.169169 -6.52493 -10.7597
lowerneck -3.02619 20.0115 5.23957
upperneck 19.5693 29.6348 -13.2864
head 9.54852 13.2465 -1.95157
rclavicle -8.74653e-015 -1.27222e-014
rhumerus -35.9511 16.8966 -98.7767
rradius 26.0561
rwrist 1.44713
rhand -15.5409 19.8213
rfingers 7.12502
rthumb 10.643 -9.88915
lclavicle -8.74653e-015 -1.27222e-014
lhumerus -50.1543 -8.93965 75.2296
lradius 86.9988
lwrist -3.93098
lhand -4.22587 26.8764
lfingers 7.12502
lthumb 21.537 55.6989
rfemur -39.9832 2.99971 11.2024
rtibia 42.7512
rfoot -10.2856 -1.82499
rtoes -19.2559
lfemur -1.86979 -3.27011 -29.9701
ltibia 30.2732
lfoot 1.27128 -19.1355
ltoes 27.7402
2517
root -4.86811 20.2284 -18.2431 362.648 -13.5087 -353.865
lowerback 0.273487 -9.94522 7.10703
upperback 3.45844 -13.3798 -6.74552
thorax 0.241919 -6.65584 -10.6714
lowerneck -2.44837 20.0245 4.81376
upperneck 18.7809 29.5898 -13.5661
head 9.14937 13.2788 -2.09378
rclavicle 7.95139e-015 -3.18055e-014
rhumerus -35.8432 17.2122 -98.8469
rradius 25.6843
rwrist 1.52346
rhand -15.2336 21.5985
rfingers 7.12502
rthumb 10.9394 -8.09653
lclavicle 7.95139e-015 -3.18055e-014
lhumerus -50.7702 -7.94787 75.0324
lradius 86.0325
lwrist -5.89242
lhand -5.50893 26.137
lfingers 7.12502
lthumb 20.3044 55.0956
rfemur -39.3103 3.05641 10.9211
rtibia 42.8249
rfoot -11.5434 -1.50259
rtoes -20.4642
lfemur -1.36832 -3.13366 -30.1149
ltibia 30.1952
lfoot 1.59346 -19.6113
ltoes 27.7788
2518
root -4.9167 20.2005 -18.1366 362.717 -13.2276 -353.494
lowerback 0.155707 -10.0849 7.21901
upperback 3.11394 -13.577 -6.52769
thorax -0.0739239 -6.78158 -10.4589
lowerneck -2.02451 20.1155 4.48356
upperneck 18.6573 29.7299 -13.675
head 9.01859 13.354 -2.12706
rclavicle -1.2106e-013 -1.19271e-014
rhumerus -36.0968 17.9308 -99.0091
rradius 25.3718
rwrist 1.41983
rhand -15.7328 21.7855
rfingers 7.12502
rthumb 10.4579 -7.9344
lclavicle -1.2106e-013 -1.19271e-014
lhumerus -51.717 -6.98462 75.1501
lradius 84.683
lwrist -8.48036
lhand -7.68274 25.2653
lfingers 7.12502
lthumb 18.2141 54.4325
rfemur -39.0196 2.90994 10.712
rtibia 43.1345
rfoot -12.944 -1.72908
rtoes -23.1032
lfemur -1.04699 -2.82364 -30.3237
ltibia 30.0556
lfoot 1.90119 -19.937
ltoes 27.6089
2519
root -4.97369 20.1762 -18.0246 362.761 -12.8465 -353.085
lowerback -0.162655 -10.2357 7.2371
upperback 2.85532 -13.7966 -6.31952
thorax -0.17376 -6.90486 -10.2576
lowerneck -0.989154 20.1205 4.13465
upperneck 17.8063 29.6719 -14.1773
head 8.5758 13.4009 -2.39543
rclavicle 2.29795e-013 1.19271e-014
rhumerus -36.4507 18.7593 -99.195
rradius 25.408
rwrist 1.21078
rhand -16.0474 21.3688
rfingers 7.12502
rthumb 10.1544 -8.36614
lclavicle 2.29795e-013 1.19271e-014
lhumerus -52.5358 -5.99181 75.2166
lradius 83.2255
lwrist -10.4533
lhand -9.44038 24.1937
lfingers 7.12502
lthumb 16.5225 53.5102
rfemur -38.7512 2.60958 10.5224
rtibia 43.588
rfoot -13.5079 -2.53719
rtoes -24.1769
lfemur -0.768129 -2.88499 -30.5985
ltibia 30.0612
lfoot 2.04897 -20.1467
ltoes 27.0697
2520
root -5.0333 20.1766 -17.9087 362.91 -12.8504 -353.057
lowerback -0.581818 -10.2365 7.56496
upperback 2.72899 -13.8244 -6.02132
thorax -0.0814206 -6.91212 -10.1837
lowerneck -1.2659 20.3851 3.51379
upperneck 17.8381 30.0618 -14.0468
head 8.56134 13.5449 -2.21519
rclavicle -1.12512e-013 -2.94201e-014
rhumerus -36.4778 19.0849 -99.0962
rradius 25.4108
rwrist 1.45957
rhand -15.8511 22.7712
rfingers 7.12502
rthumb 10.3438 -6.95442
lclavicle -1.12512e-013 -2.94201e-014
lhumerus -53.151 -4.75574 75.0605
lradius 82.228
lwrist -10.0053
lhand -9.42572 24.4286
lfingers 7.12502
lthumb 16.5366 53.7439
rfemur -38.8595 3.06675 10.5056
rtibia 44.2261
rfoot -13.8211 -3.51886
rtoes -23.6364
lfemur -0.635567 -3.11281 -30.5755
ltibia 30.1736
lfoot 2.13049 -20.0096
ltoes 26.4175
2521
root -5.08138 20.1648 -17.7889 363.179 -13.1422 -353.645
lowerback -0.9445 -10.1367 8.5665
upperback 2.73372 -13.7326 -5.57078
thorax 0.0322232 -6.8442 -10.319
lowerneck -1.2434 20.3096 3.13326
upperneck 17.7983 30.0071 -14.25
head 8.51847 13.4899 -2.2506
rclavicle 6.13251e-014 3.10104e-014
rhumerus -36.0867 19.3831 -98.9764
rradius 25.2605
rwrist 1.83888
rhand -16.4622 23.1683
rfingers 7.12502
rthumb 9.7542 -6.58582
lclavicle 6.13251e-014 3.10104e-014
lhumerus -53.4109 -3.74376 75.0905
lradius 80.5445
lwrist -10.7326
lhand -10.664 23.6614
lfingers 7.12502
lthumb 15.3442 53.0721
rfemur -39.1031 4.05612 11.003
rtibia 44.9348
rfoot -14.19 -4.35917
rtoes -23.6368
lfemur -0.471244 -3.54207 -30.0892
ltibia 30.3268
lfoot 2.11172 -19.3426
ltoes 25.3526
2522
root -5.1146 20.1513 -17.6758 363.261 -13.1692 -353.794
lowerback -1.14224 -10.1363 9.2591
upperback 2.8336 -13.7643 -5.27054
thorax 0.159587 -6.83733 -10.4152
lowerneck -2.12176 20.501 2.69353
upperneck 17.9524 30.3973 -14.324
head 8.70949 13.5794 -2.0666
rclavicle 2.79292e-014 1.98785e-014
rhumerus -35.3724 19.6349 -98.8542
rradius 25.0146
rwrist 2.2736
rhand -17.1489 23.1978
rfingers 7.12502
rthumb 9.09169 -6.58628
lclavicle 2.79292e-014 1.98785e-014
lhumerus -53.1765 -2.65725 74.9291
lradius 78.2719
lwrist -11.7339
lhand -12.2042 21.7853
lfingers 7.12502
lthumb 13.8602 51.3035
rfemur -39.3051 4.47556 11.046
rtibia 45.7368
rfoot -14.4866 -4.16276
rtoes -23.2018
lfemur -0.210997 -4.22633 -30.1561
ltibia 30.5715
lfoot 2.12356 -18.4356
ltoes 24.294
2523
root -5.14216 20.1378 -17.5859 363.139 -12.7789 -353.134
lowerback -1.09262 -10.3144 9.13906
upperback 2.85385 -13.9948 -5.14082
thorax 0.157937 -6.95122 -10.1839
lowerneck -2.22372 20.4473 2.2643
upperneck 17.6966 30.374 -14.6511
head 8.63113 13.5381 -2.12058
rclavicle -5.9039e-014 1.15295e-014
rhumerus -34.7285 20.1287 -98.7594
rradius 24.7245
rwrist 2.27496
rhand -17.6602 23.1108
rfingers 7.12502
rthumb 8.59823 -6.6941
lclavicle -5.9039e-014 1.15295e-014
lhumerus -52.9964 -1.54621 74.8136
lradius 76.0347
lwrist -12.4783
lhand -18.9357 24.6433
lfingers 7.12502
lthumb 7.36722 54.4951
rfemur -39.5069 3.95947 10.3673
rtibia 46.5685
rfoot -14.5375 -3.46509
rtoes -20.5525
lfemur -0.128863 -4.81416 -30.95
ltibia 31.0269
lfoot 2.48087 -17.9519
ltoes 23.6457
